<?xml version="1.0" encoding="UTF-8" standalone="no"?>
<svg
   xmlns:dc="http://purl.org/dc/elements/1.1/"
   xmlns:cc="http://creativecommons.org/ns#"
   xmlns:rdf="http://www.w3.org/1999/02/22-rdf-syntax-ns#"
   xmlns:svg="http://www.w3.org/2000/svg"
   xmlns="http://www.w3.org/2000/svg"
   viewBox="0 0 793.70135 1122.52"
   height="1122.52"
   width="793.70135"
   xml:space="preserve"
   id="svg2"
   version="1.1"><metadata
     id="metadata8"><rdf:RDF><cc:Work
         rdf:about=""><dc:format>image/svg+xml</dc:format><dc:type
           rdf:resource="http://purl.org/dc/dcmitype/StillImage" /></cc:Work></rdf:RDF></metadata><defs
     id="defs6"><clipPath
       id="clipPath20"
       clipPathUnits="userSpaceOnUse"><path
         id="path18"
         d="M 0,841.89 H 595.276 V 0 H 0 Z" /></clipPath><clipPath
       id="clipPath166"
       clipPathUnits="userSpaceOnUse"><path
         id="path164"
         d="M 0,841.89 H 595.276 V 0 H 0 Z" /></clipPath></defs><g
     transform="matrix(1.3333333,0,0,-1.3333333,0,1122.52)"
     id="g10"><path
       id="path12"
       style="fill:#000000;fill-opacity:1;fill-rule:nonzero;stroke:none"
       d="M 0,0 H 595.276 V 841.89 H 0 Z" /><g
       id="g14"><g
         clip-path="url(#clipPath20)"
         id="g16"><g
           transform="translate(211.1875,213.6742)"
           id="g22"><path
             id="path24"
             style="fill:#b1935a;fill-opacity:1;fill-rule:nonzero;stroke:none"
             d="M 0,0 C -3.807,0 -3.807,5.675 0,5.675 3.877,5.675 3.771,0 0,0" /></g><g
           transform="translate(400.1426,213.6742)"
           id="g26"><path
             id="path28"
             style="fill:#b1935a;fill-opacity:1;fill-rule:nonzero;stroke:none"
             d="M 0,0 C -3.807,0 -3.807,5.675 0,5.675 3.878,5.675 3.771,0 0,0" /></g><g
           transform="translate(215.6099,611.5482)"
           id="g30"><path
             id="path32"
             style="fill:#b1935a;fill-opacity:1;fill-rule:nonzero;stroke:none"
             d="M 0,0 C 3.334,0 3.334,5.557 0,5.557 H -4.376 V 0 Z m -9.342,-14.309 v 24.797 h 9.759 c 9.654,0 9.62,-15.316 0,-15.316 h -4.793 v -9.481 z" /></g><g
           transform="translate(239.1201,611.5482)"
           id="g34"><path
             id="path36"
             style="fill:#b1935a;fill-opacity:1;fill-rule:nonzero;stroke:none"
             d="m 0,0 h 4.376 c 3.369,0 3.369,5.557 0,5.557 H 0 Z M 7.397,-14.309 2.396,-4.828 H 0 v -9.481 h -4.966 v 24.831 h 9.793 c 8.856,0 9.724,-12.467 2.431,-14.585 l 5.765,-10.246 z" /></g><g
           transform="translate(274.3345,617.3822)"
           id="g38"><path
             id="path40"
             style="fill:#b1935a;fill-opacity:1;fill-rule:nonzero;stroke:none"
             d="M 0,0 C -9.933,0 -9.933,-15.35 0,-15.35 9.933,-15.35 9.933,0 0,0 m 0,5.105 c 17.086,0 17.086,-25.595 0,-25.595 -17.086,0 -17.086,25.595 0,25.595" /></g><g
           transform="translate(297.0801,602.2059)"
           id="g42"><path
             id="path44"
             style="fill:#b1935a;fill-opacity:1;fill-rule:nonzero;stroke:none"
             d="m 0,0 h 4.758 c 1.424,0 2.535,1.111 2.535,2.5 v 17.365 h 4.932 V 2.5 c 0,-4.132 -3.265,-7.466 -7.329,-7.466 H 0 Z" /></g><g
           transform="translate(321.8408,597.2396)"
           id="g46"><path
             id="path48"
             style="fill:#b1935a;fill-opacity:1;fill-rule:nonzero;stroke:none"
             d="M 0,0 V 24.831 H 12.433 V 19.865 H 4.966 v -4.966 h 6.529 V 9.933 H 4.966 V 4.966 H 12.85 L 12.85,0 Z" /></g><g
           transform="translate(357.7842,617.3822)"
           id="g50"><path
             id="path52"
             style="fill:#b1935a;fill-opacity:1;fill-rule:nonzero;stroke:none"
             d="m 0,0 c -9.828,0 -9.828,-15.142 0,-15.142 2.153,0 3.855,0.625 4.793,1.112 l 0.659,-5.14 C 3.925,-19.795 1.736,-20.212 0,-20.212 c -16.844,0 -16.809,25.213 0,25.213 1.736,0 3.403,-0.313 4.897,-0.972 L 4.307,-1.076 C 3.369,-0.59 2.153,0 0,0" /></g><g
           transform="translate(378.2383,597.2396)"
           id="g54"><path
             id="path56"
             style="fill:#b1935a;fill-opacity:1;fill-rule:nonzero;stroke:none"
             d="m 0,0 v 19.865 h -6.182 v 4.931 h 17.33 V 19.865 H 4.967 L 4.967,0 Z" /></g><g
           transform="translate(84.5879,219.8998)"
           id="g58"><path
             id="path60"
             style="fill:#b1935a;fill-opacity:1;fill-rule:nonzero;stroke:none"
             d="m 0,0 v -7.07 h 1.154 c 4.581,0 4.581,7.07 0,7.07 z m 1.154,-9.427 h -3.51 V 2.356 h 3.51 c 7.844,0 7.844,-11.783 0,-11.783" /></g><path
           id="path62"
           style="fill:#b1935a;fill-opacity:1;fill-rule:nonzero;stroke:none"
           d="m 98.782,222.256 h 2.356 v -11.783 h -2.356 z" /><g
           transform="translate(112.3965,210.2259)"
           id="g64"><path
             id="path66"
             style="fill:#b1935a;fill-opacity:1;fill-rule:nonzero;stroke:none"
             d="m 0,0 -4.878,12.03 h 2.719 L -0.593,8.107 0.264,5.669 1.104,8.025 2.687,12.03 H 5.405 L 0.527,0 Z" /></g><g
           transform="translate(124.1846,210.473)"
           id="g68"><path
             id="path70"
             style="fill:#b1935a;fill-opacity:1;fill-rule:nonzero;stroke:none"
             d="M 0,0 V 11.783 H 5.899 V 9.427 H 2.356 V 7.069 H 5.455 V 4.713 H 2.356 V 2.356 H 6.098 V 0 Z" /></g><g
           transform="translate(139.7944,217.263)"
           id="g72"><path
             id="path74"
             style="fill:#b1935a;fill-opacity:1;fill-rule:nonzero;stroke:none"
             d="m 0,0 h 2.077 c 1.598,0 1.598,2.637 0,2.637 H 0 Z M 3.51,-6.79 1.137,-2.291 H 0 V -6.79 H -2.356 V 4.993 h 4.647 c 4.202,0 4.614,-5.917 1.153,-6.922 L 6.18,-6.79 Z" /></g><g
           transform="translate(152.2412,213.7025)"
           id="g76"><path
             id="path78"
             style="fill:#b1935a;fill-opacity:1;fill-rule:nonzero;stroke:none"
             d="M 0,0 C 1.351,-0.955 2.818,-0.988 3.362,-0.938 4.054,-0.89 4.647,-0.395 4.581,0.248 4.532,0.924 4.021,1.22 3.362,1.451 1.516,2.126 -0.132,3.065 -0.132,5.043 c 0,1.978 1.368,3.494 3.329,3.593 0.61,0.033 1.417,0.033 2.933,-0.494 L 5.833,5.867 C 4.532,6.395 3.79,6.378 3.428,6.361 2.587,6.312 2.208,5.702 2.258,5.043 2.323,4.384 2.9,4.088 3.576,3.856 5.405,3.181 6.987,2.126 6.987,0.248 c 0,-1.961 -1.351,-3.461 -3.559,-3.576 -0.659,-0.05 -2.126,0.033 -3.725,0.856 z" /></g><path
           id="path80"
           style="fill:#b1935a;fill-opacity:1;fill-rule:nonzero;stroke:none"
           d="m 166.154,222.256 h 2.356 v -11.783 h -2.356 z" /><g
           transform="translate(178.0547,210.473)"
           id="g82"><path
             id="path84"
             style="fill:#b1935a;fill-opacity:1;fill-rule:nonzero;stroke:none"
             d="m 0,0 v 9.427 h -2.933 v 2.34 H 5.29 V 9.427 H 2.357 L 2.357,0 Z" /></g><g
           transform="translate(192.9565,215.7796)"
           id="g86"><path
             id="path88"
             style="fill:#b1935a;fill-opacity:1;fill-rule:nonzero;stroke:none"
             d="m 0,0 -4.103,6.477 h 2.867 L 1.17,2.422 3.576,6.477 H 6.46 L 2.34,0 V -5.307 H 0 Z" /></g><g
           transform="translate(230.6396,220.0306)"
           id="g90"><path
             id="path92"
             style="fill:#b1935a;fill-opacity:1;fill-rule:nonzero;stroke:none"
             d="M 0,0 C -4.713,0 -4.713,-7.283 0,-7.283 4.713,-7.283 4.713,0 0,0 m 0,2.423 c 8.108,0 8.108,-12.146 0,-12.146 -8.108,0 -8.108,12.146 0,12.146" /></g><g
           transform="translate(248.3115,217.263)"
           id="g94"><path
             id="path96"
             style="fill:#b1935a;fill-opacity:1;fill-rule:nonzero;stroke:none"
             d="M 0,0 C 1.582,0 1.582,2.637 0,2.637 H -2.077 V 0 Z M -4.433,-6.79 V 4.977 h 4.631 c 4.581,0 4.565,-7.268 0,-7.268 H -2.077 V -6.79 Z" /></g><g
           transform="translate(263.1968,217.263)"
           id="g98"><path
             id="path100"
             style="fill:#b1935a;fill-opacity:1;fill-rule:nonzero;stroke:none"
             d="M 0,0 C 1.582,0 1.582,2.637 0,2.637 H -2.077 V 0 Z M -4.433,-6.79 V 4.977 h 4.631 c 4.581,0 4.564,-7.268 0,-7.268 H -2.077 V -6.79 Z" /></g><g
           transform="translate(279.3184,220.0306)"
           id="g102"><path
             id="path104"
             style="fill:#b1935a;fill-opacity:1;fill-rule:nonzero;stroke:none"
             d="M 0,0 C -4.713,0 -4.713,-7.283 0,-7.283 4.713,-7.283 4.713,0 0,0 m 0,2.423 c 8.108,0 8.108,-12.146 0,-12.146 -8.108,0 -8.108,12.146 0,12.146" /></g><g
           transform="translate(294.9136,217.263)"
           id="g106"><path
             id="path108"
             style="fill:#b1935a;fill-opacity:1;fill-rule:nonzero;stroke:none"
             d="m 0,0 h 2.077 c 1.598,0 1.598,2.637 0,2.637 H 0 Z M 3.51,-6.79 1.137,-2.291 H 0 V -6.79 H -2.356 V 4.993 h 4.647 c 4.202,0 4.614,-5.917 1.153,-6.922 L 6.18,-6.79 Z" /></g><g
           transform="translate(309.5518,210.473)"
           id="g110"><path
             id="path112"
             style="fill:#b1935a;fill-opacity:1;fill-rule:nonzero;stroke:none"
             d="m 0,0 v 9.427 h -2.933 v 2.34 H 5.29 V 9.427 H 2.356 L 2.356,0 Z" /></g><g
           transform="translate(321.5039,214.5765)"
           id="g114"><path
             id="path116"
             style="fill:#b1935a;fill-opacity:1;fill-rule:nonzero;stroke:none"
             d="M 0,0 V 7.68 H 2.356 V 0.017 c 0,-2.473 3.824,-2.473 3.824,0 V 7.68 H 8.52 V 0 C 8.52,-5.604 0,-5.604 0,0" /></g><g
           transform="translate(339.9326,210.473)"
           id="g118"><path
             id="path120"
             style="fill:#b1935a;fill-opacity:1;fill-rule:nonzero;stroke:none"
             d="M 0,0 H -2.356 V 12.03 H -1.73 L 4.219,5.108 v 6.659 H 6.592 V -0.247 H 5.966 L 0,6.41 Z" /></g><path
           id="path122"
           style="fill:#b1935a;fill-opacity:1;fill-rule:nonzero;stroke:none"
           d="m 354.127,222.256 h 2.356 v -11.783 h -2.356 z" /><g
           transform="translate(366.0273,210.473)"
           id="g124"><path
             id="path126"
             style="fill:#b1935a;fill-opacity:1;fill-rule:nonzero;stroke:none"
             d="m 0,0 v 9.427 h -2.934 v 2.34 H 5.29 V 9.427 H 2.356 V 0 Z" /></g><g
           transform="translate(380.9297,215.7796)"
           id="g128"><path
             id="path130"
             style="fill:#b1935a;fill-opacity:1;fill-rule:nonzero;stroke:none"
             d="m 0,0 -4.104,6.477 h 2.868 L 1.17,2.422 3.576,6.477 H 6.46 L 2.34,0 V -5.307 H 0 Z" /></g><g
           transform="translate(415.2998,210.473)"
           id="g132"><path
             id="path134"
             style="fill:#b1935a;fill-opacity:1;fill-rule:nonzero;stroke:none"
             d="M 0,0 H -2.356 V 12.03 H -1.73 L 4.219,5.108 v 6.659 H 6.592 V -0.247 H 5.966 L 0,6.41 Z" /></g><g
           transform="translate(435.1631,220.0306)"
           id="g136"><path
             id="path138"
             style="fill:#b1935a;fill-opacity:1;fill-rule:nonzero;stroke:none"
             d="M 0,0 C -4.713,0 -4.713,-7.283 0,-7.283 4.713,-7.283 4.713,0 0,0 m 0,2.423 c 8.108,0 8.108,-12.146 0,-12.146 -8.108,0 -8.108,12.146 0,12.146" /></g><g
           transform="translate(452.0596,210.2259)"
           id="g140"><path
             id="path142"
             style="fill:#b1935a;fill-opacity:1;fill-rule:nonzero;stroke:none"
             d="m 0,0 -4.878,12.03 h 2.72 L -0.593,8.107 0.264,5.669 1.104,8.025 2.687,12.03 H 5.405 L 0.527,0 Z" /></g><g
           transform="translate(463.8477,210.473)"
           id="g144"><path
             id="path146"
             style="fill:#b1935a;fill-opacity:1;fill-rule:nonzero;stroke:none"
             d="M 0,0 V 11.783 H 5.899 V 9.427 H 2.356 V 7.069 H 5.455 V 4.713 H 2.356 V 2.356 H 6.098 V 0 Z" /></g><g
           transform="translate(479.458,222.2562)"
           id="g148"><path
             id="path150"
             style="fill:#b1935a;fill-opacity:1;fill-rule:nonzero;stroke:none"
             d="m 0,0 v -9.427 h 3.741 v -2.356 h -6.097 l 0,11.783 z" /></g><g
           transform="translate(492.1182,210.473)"
           id="g152"><path
             id="path154"
             style="fill:#b1935a;fill-opacity:1;fill-rule:nonzero;stroke:none"
             d="m 0,0 v 9.427 h -2.933 v 2.34 H 5.29 V 9.427 H 2.356 L 2.356,0 Z" /></g><g
           transform="translate(507.0195,215.7796)"
           id="g156"><path
             id="path158"
             style="fill:#b1935a;fill-opacity:1;fill-rule:nonzero;stroke:none"
             d="m 0,0 -4.104,6.477 h 2.868 L 1.17,2.422 3.576,6.477 H 6.46 L 2.34,0 V -5.307 H 0 Z" /></g></g></g><g
       id="g160"><g
         clip-path="url(#clipPath166)"
         id="g162"><g
           transform="translate(282.5469,275.2152)"
           id="g168"><path
             id="path170"
             style="fill:none;stroke:#b1935a;stroke-width:10;stroke-linecap:butt;stroke-linejoin:miter;stroke-miterlimit:10;stroke-dasharray:none;stroke-opacity:1"
             d="m 0,0 c -67.292,0 -122.744,63.932 -122.744,135.729 0,71.799 56.36,135.73 122.744,135.73" /></g><g
           transform="translate(312.6758,547.015)"
           id="g172"><path
             id="path174"
             style="fill:none;stroke:#b1935a;stroke-width:10;stroke-linecap:butt;stroke-linejoin:miter;stroke-miterlimit:10;stroke-dasharray:none;stroke-opacity:1"
             d="M 0,0 C 67.164,0 122.797,-64.272 122.797,-136.07 122.797,-207.868 66.618,-271.8 0,-271.8" /></g><g
           transform="translate(387.6377,361.39)"
           id="g176"><path
             id="path178"
             style="fill:none;stroke:#b1935a;stroke-width:10;stroke-linecap:butt;stroke-linejoin:miter;stroke-miterlimit:10;stroke-dasharray:none;stroke-opacity:1"
             d="M 0,0 V 104.469" /></g><g
           transform="translate(386.71,364.3217)"
           id="g180"><path
             id="path182"
             style="fill:none;stroke:#b1935a;stroke-width:10;stroke-linecap:butt;stroke-linejoin:miter;stroke-miterlimit:10;stroke-dasharray:none;stroke-opacity:1"
             d="M 0,0 -43.056,59.998" /></g><g
           transform="translate(250.4062,413.6244)"
           id="g184"><path
             id="path186"
             style="fill:none;stroke:#b1935a;stroke-width:10;stroke-linecap:butt;stroke-linejoin:miter;stroke-miterlimit:10;stroke-dasharray:none;stroke-opacity:1"
             d="m 0,0 c 0,6.764 1.432,13.189 3.992,19.006 -8.396,16.621 -27.46,28.226 -49.648,28.226 v -94.466 c 22.185,0 41.248,11.611 49.646,28.233 C 1.431,-13.186 0,-6.762 0,0 Z" /></g><g
           transform="translate(317.667,367.7406)"
           id="g188"><path
             id="path190"
             style="fill:none;stroke:#b1935a;stroke-width:10;stroke-linecap:butt;stroke-linejoin:miter;stroke-miterlimit:10;stroke-dasharray:none;stroke-opacity:1"
             d="M 0,0 V -89.431" /></g><g
           transform="translate(277.6011,367.7406)"
           id="g192"><path
             id="path194"
             style="fill:none;stroke:#b1935a;stroke-width:10;stroke-linecap:butt;stroke-linejoin:miter;stroke-miterlimit:10;stroke-dasharray:none;stroke-opacity:1"
             d="M 0,0 -0.049,-89.431" /></g><g
           transform="translate(317.667,547.7401)"
           id="g196"><path
             id="path198"
             style="fill:none;stroke:#b1935a;stroke-width:10;stroke-linecap:butt;stroke-linejoin:miter;stroke-miterlimit:10;stroke-dasharray:none;stroke-opacity:1"
             d="M 0,0 V -1.066 -91.07" /></g><g
           transform="translate(277.5469,542.2509)"
           id="g200"><path
             id="path202"
             style="fill:none;stroke:#b1935a;stroke-width:10;stroke-linecap:butt;stroke-linejoin:miter;stroke-miterlimit:10;stroke-dasharray:none;stroke-opacity:1"
             d="M 0,0 V -86.686" /></g><g
           transform="translate(344.8721,413.6244)"
           id="g204"><path
             id="path206"
             style="fill:none;stroke:#b1935a;stroke-width:10;stroke-linecap:butt;stroke-linejoin:miter;stroke-miterlimit:10;stroke-dasharray:none;stroke-opacity:1"
             d="m 0,0 c 0,-26.086 -21.147,-47.233 -47.234,-47.233 -26.086,0 -47.233,21.147 -47.233,47.233 0,26.086 21.147,47.233 47.233,47.233 C -21.147,47.233 0,26.086 0,0 Z" /></g><g
           transform="translate(456.5,411.6244)"
           id="g208"><path
             id="path210"
             style="fill:none;stroke:#b1935a;stroke-width:10;stroke-linecap:butt;stroke-linejoin:miter;stroke-miterlimit:10;stroke-dasharray:none;stroke-opacity:1"
             d="m 0,0 c 0,-87.736 -71.125,-158.861 -158.862,-158.861 -87.737,0 -158.862,71.125 -158.862,158.861 0,87.737 71.125,158.862 158.862,158.862 C -71.125,158.862 0,87.737 0,0 Z" /></g><g
           transform="translate(297.6382,570.4862)"
           id="g212"><path
             id="path214"
             style="fill:none;stroke:#b1935a;stroke-width:10;stroke-linecap:butt;stroke-linejoin:miter;stroke-miterlimit:10;stroke-dasharray:none;stroke-opacity:1"
             d="M 0,0 V -109.628" /></g><g
           transform="translate(297.6382,366.4867)"
           id="g216"><path
             id="path218"
             style="fill:none;stroke:#b1935a;stroke-width:10;stroke-linecap:butt;stroke-linejoin:miter;stroke-miterlimit:10;stroke-dasharray:none;stroke-opacity:1"
             d="M 0,0 V -109.629" /></g></g></g></g></svg>