<?xml version="1.0" encoding="UTF-8" standalone="no"?>
<svg
   xmlns:dc="http://purl.org/dc/elements/1.1/"
   xmlns:cc="http://creativecommons.org/ns#"
   xmlns:rdf="http://www.w3.org/1999/02/22-rdf-syntax-ns#"
   xmlns:svg="http://www.w3.org/2000/svg"
   xmlns="http://www.w3.org/2000/svg"
   viewBox="0 0 793.70135 1122.52"
   height="1122.52"
   width="793.70135"
   xml:space="preserve"
   id="svg2"
   version="1.1"><metadata
     id="metadata8"><rdf:RDF><cc:Work
         rdf:about=""><dc:format>image/svg+xml</dc:format><dc:type
           rdf:resource="http://purl.org/dc/dcmitype/StillImage" /></cc:Work></rdf:RDF></metadata><defs
     id="defs6"><clipPath
       id="clipPath32"
       clipPathUnits="userSpaceOnUse"><path
         id="path30"
         d="M 0,841.89 H 595.276 V 0 H 0 Z" /></clipPath></defs><g
     transform="matrix(1.3333333,0,0,-1.3333333,0,1122.52)"
     id="g10"><path
       id="path12"
       style="fill:#000000;fill-opacity:1;fill-rule:nonzero;stroke:none"
       d="M 0,0 H 595.276 V 841.89 H 0 Z" /><text
       id="text16"
       style="font-variant:normal;font-weight:900;font-stretch:normal;font-size:35.24860001px;font-family:'Lovelo Black';-inkscape-font-specification:LoveloBlack;writing-mode:lr-tb;fill:#b1935a;fill-opacity:1;fill-rule:nonzero;stroke:none"
       transform="matrix(1,0,0,-1,207.3101,213.9209)"><tspan
         id="tspan14"
         y="0"
         x="0 188.96774">..</tspan></text>
<text
       id="text20"
       style="font-variant:normal;font-weight:900;font-stretch:normal;font-size:34.72790146px;font-family:'Lovelo Black';-inkscape-font-specification:LoveloBlack;writing-mode:lr-tb;fill:#b1935a;fill-opacity:1;fill-rule:nonzero;stroke:none"
       transform="matrix(1,0,0,-1,203.4893,597.2393)"><tspan
         id="tspan18"
         y="0"
         x="0 27.886503 56.120285 92.4804 115.57445 140.02289 167.87466">project</tspan></text>
<text
       id="text24"
       style="font-variant:normal;font-weight:900;font-stretch:normal;font-size:16.48460007px;font-family:'Lovelo Black';-inkscape-font-specification:LoveloBlack;writing-mode:lr-tb;fill:#b1935a;fill-opacity:1;fill-rule:nonzero;stroke:none"
       transform="matrix(1,0,0,-1,80.9131,210.4727)"><tspan
         id="tspan22"
         y="0"
         x="0 16.550539 26.507236 41.953308 55.206924 70.257362 83.923096 93.879799 107.84225 123.48614 142.74016 161.64799 176.53358 191.41917 210.32701 225.37746 239.3399 255.34645 271.897 281.8537 295.81616 311.46002 330.71405 347.26459 366.17242 381.6185 394.8721 407.9444 421.90686">Diversity opportunity novelty</tspan></text>
<g
       id="g26"><g
         clip-path="url(#clipPath32)"
         id="g28"><g
           transform="translate(282.5469,275.2152)"
           id="g34"><path
             id="path36"
             style="fill:none;stroke:#b1935a;stroke-width:10;stroke-linecap:butt;stroke-linejoin:miter;stroke-miterlimit:10;stroke-dasharray:none;stroke-opacity:1"
             d="m 0,0 c -67.292,0 -122.744,63.932 -122.744,135.729 0,71.799 56.36,135.73 122.744,135.73" /></g><g
           transform="translate(312.6758,547.015)"
           id="g38"><path
             id="path40"
             style="fill:none;stroke:#b1935a;stroke-width:10;stroke-linecap:butt;stroke-linejoin:miter;stroke-miterlimit:10;stroke-dasharray:none;stroke-opacity:1"
             d="M 0,0 C 67.164,0 122.797,-64.272 122.797,-136.07 122.797,-207.868 66.618,-271.8 0,-271.8" /></g><g
           transform="translate(387.6377,361.39)"
           id="g42"><path
             id="path44"
             style="fill:none;stroke:#b1935a;stroke-width:10;stroke-linecap:butt;stroke-linejoin:miter;stroke-miterlimit:10;stroke-dasharray:none;stroke-opacity:1"
             d="M 0,0 V 104.469" /></g><g
           transform="translate(386.71,364.3217)"
           id="g46"><path
             id="path48"
             style="fill:none;stroke:#b1935a;stroke-width:10;stroke-linecap:butt;stroke-linejoin:miter;stroke-miterlimit:10;stroke-dasharray:none;stroke-opacity:1"
             d="M 0,0 -43.056,59.998" /></g><g
           transform="translate(250.4062,413.6244)"
           id="g50"><path
             id="path52"
             style="fill:none;stroke:#b1935a;stroke-width:10;stroke-linecap:butt;stroke-linejoin:miter;stroke-miterlimit:10;stroke-dasharray:none;stroke-opacity:1"
             d="m 0,0 c 0,6.764 1.432,13.189 3.992,19.006 -8.396,16.621 -27.46,28.226 -49.648,28.226 v -94.466 c 22.185,0 41.248,11.611 49.646,28.233 C 1.431,-13.186 0,-6.762 0,0 Z" /></g><g
           transform="translate(317.667,367.7406)"
           id="g54"><path
             id="path56"
             style="fill:none;stroke:#b1935a;stroke-width:10;stroke-linecap:butt;stroke-linejoin:miter;stroke-miterlimit:10;stroke-dasharray:none;stroke-opacity:1"
             d="M 0,0 V -89.431" /></g><g
           transform="translate(277.6011,367.7406)"
           id="g58"><path
             id="path60"
             style="fill:none;stroke:#b1935a;stroke-width:10;stroke-linecap:butt;stroke-linejoin:miter;stroke-miterlimit:10;stroke-dasharray:none;stroke-opacity:1"
             d="M 0,0 -0.049,-89.431" /></g><g
           transform="translate(317.667,547.7401)"
           id="g62"><path
             id="path64"
             style="fill:none;stroke:#b1935a;stroke-width:10;stroke-linecap:butt;stroke-linejoin:miter;stroke-miterlimit:10;stroke-dasharray:none;stroke-opacity:1"
             d="M 0,0 V -1.066 -91.07" /></g><g
           transform="translate(277.5469,542.2509)"
           id="g66"><path
             id="path68"
             style="fill:none;stroke:#b1935a;stroke-width:10;stroke-linecap:butt;stroke-linejoin:miter;stroke-miterlimit:10;stroke-dasharray:none;stroke-opacity:1"
             d="M 0,0 V -86.686" /></g><g
           transform="translate(344.8721,413.6244)"
           id="g70"><path
             id="path72"
             style="fill:none;stroke:#b1935a;stroke-width:10;stroke-linecap:butt;stroke-linejoin:miter;stroke-miterlimit:10;stroke-dasharray:none;stroke-opacity:1"
             d="m 0,0 c 0,-26.086 -21.147,-47.233 -47.234,-47.233 -26.086,0 -47.233,21.147 -47.233,47.233 0,26.086 21.147,47.233 47.233,47.233 C -21.147,47.233 0,26.086 0,0 Z" /></g><g
           transform="translate(456.5,411.6244)"
           id="g74"><path
             id="path76"
             style="fill:none;stroke:#b1935a;stroke-width:10;stroke-linecap:butt;stroke-linejoin:miter;stroke-miterlimit:10;stroke-dasharray:none;stroke-opacity:1"
             d="m 0,0 c 0,-87.736 -71.125,-158.861 -158.862,-158.861 -87.737,0 -158.862,71.125 -158.862,158.861 0,87.737 71.125,158.862 158.862,158.862 C -71.125,158.862 0,87.737 0,0 Z" /></g><g
           transform="translate(297.6382,570.4862)"
           id="g78"><path
             id="path80"
             style="fill:none;stroke:#b1935a;stroke-width:10;stroke-linecap:butt;stroke-linejoin:miter;stroke-miterlimit:10;stroke-dasharray:none;stroke-opacity:1"
             d="M 0,0 V -109.628" /></g><g
           transform="translate(297.6382,366.4867)"
           id="g82"><path
             id="path84"
             style="fill:none;stroke:#b1935a;stroke-width:10;stroke-linecap:butt;stroke-linejoin:miter;stroke-miterlimit:10;stroke-dasharray:none;stroke-opacity:1"
             d="M 0,0 V -109.629" /></g></g></g></g></svg>